<svg xmlns="http://www.w3.org/2000/svg" viewBox="0 0 128 128">
  <defs>
    <linearGradient id="bg" x1="0" y1="0" x2="1" y2="1">
      <stop offset="0" stop-color="#0aa68f"/>
      <stop offset="1" stop-color="#0b5f87"/>
    </linearGradient>
    <filter id="shadow" x="-20%" y="-20%" width="140%" height="140%">
      <feDropShadow dx="0" dy="6" stdDeviation="5" flood-color="#000" flood-opacity="0.28"/>
    </filter>
  </defs>
  <rect x="10" y="12" width="108" height="104" rx="22" fill="url(#bg)" filter="url(#shadow)"/>
  <rect x="25" y="34" width="78" height="62" rx="10" fill="#f7f7f7"/>
  <rect x="25" y="34" width="78" height="18" rx="10" fill="#23b39b"/>
  <circle cx="44" cy="28" r="6" fill="#f7f7f7"/>
  <circle cx="84" cy="28" r="6" fill="#f7f7f7"/>
  <path d="M42 76c-7 0-12-5-12-11 0-6 5-11 11-11 3-8 10-13 19-13 11 0 20 8 21 19 8 1 14 7 14 15 0 9-7 15-16 15H42z" fill="#ffffff" stroke="#1f2937" stroke-width="5" stroke-linejoin="round"/>
  <circle cx="86" cy="48" r="14" fill="#ffd166" stroke="#1f2937" stroke-width="5"/>
  <path d="M35 103c16-11 31-11 48 0" fill="none" stroke="#23b39b" stroke-width="7" stroke-linecap="round"/>
</svg>
